<?xml version="1.0" standalone="no"?><!DOCTYPE svg PUBLIC "-//W3C//DTD SVG 1.1//EN" "http://www.w3.org/Graphics/SVG/1.1/DTD/svg11.dtd"><svg t="1693500731965" class="icon" viewBox="0 0 1024 1024" version="1.1" xmlns="http://www.w3.org/2000/svg" p-id="5168" xmlns:xlink="http://www.w3.org/1999/xlink" width="128" height="128"><path d="M1014.36721 511.913993c-3.78431 66.569461-0.860071 137.26726-16.685369 205.384848-14.793214 67.77356-48.335965 133.138922-97.876029 182.334957-49.196036 49.712078-114.389384 83.254829-182.334957 97.876029-68.117588 15.825298-138.815387 12.901058-205.384848 16.685369-66.569461-3.78431-137.26726-0.860071-205.384848-16.685369-67.77356-14.793214-133.138922-48.335965-182.334957-97.876029-49.712078-49.196036-83.254829-114.389384-97.876029-182.334957-16.169326-67.945574-13.073072-138.643373-16.857383-205.384848 3.78431-66.569461 0.860071-137.26726 16.685369-205.384848 14.793214-67.77356 48.335965-133.138922 97.876029-182.334957 49.196036-49.712078 114.389384-83.254829 182.334957-97.876029 68.117588-15.825298 138.815387-12.901058 205.384848-16.685369 66.569461 3.78431 137.26726 0.860071 205.384848 16.685369 67.77356 14.793214 133.138922 48.335965 182.334957 97.876029 49.712078 49.196036 83.254829 114.389384 97.876029 182.334957 15.997312 68.117588 13.073072 138.815387 16.857383 205.384848z" p-id="5169"></path></svg>