<?xml version="1.0" standalone="no"?><!DOCTYPE svg PUBLIC "-//W3C//DTD SVG 1.1//EN" "http://www.w3.org/Graphics/SVG/1.1/DTD/svg11.dtd"><svg t="1710735057652" class="icon" viewBox="0 0 1024 1024" version="1.1" xmlns="http://www.w3.org/2000/svg" p-id="2585" xmlns:xlink="http://www.w3.org/1999/xlink" width="64" height="64"><path d="M383.675989 500.785592h-194.691505c-53.669451 0-97.345753-43.676301-97.345753-97.345753v-194.691505c0-53.669451 43.676301-97.345753 97.345753-97.345753h194.691505c53.670719 0 97.345753 43.676301 97.345753 97.345753v194.691505c0 53.702407-43.675034 97.345753-97.345753 97.345753z m0 454.280179h-194.691505c-53.669451 0-97.345753-43.675034-97.345753-97.344485V663.027246c0-53.669451 43.676301-97.344485 97.345753-97.344486h194.691505c53.670719 0 97.345753 43.675034 97.345753 97.344486v194.69404c0 53.701139-43.675034 97.344485-97.345753 97.344485z m451.099965-454.280179h-194.691505c-53.669451 0-97.34702-43.676301-97.347021-97.345753v-194.691505c0-53.669451 43.677569-97.345753 97.347021-97.345753h194.691505c53.671986 0 97.34702 43.676301 97.34702 97.345753v194.691505c0 53.702407-43.675034 97.345753-97.34702 97.345753z m0 454.280179h-194.691505c-53.669451 0-97.34702-43.675034-97.347021-97.344485V663.027246c0-53.669451 43.677569-97.344485 97.347021-97.344486h194.691505c53.671986 0 97.34702 43.675034 97.34702 97.344486v194.69404c0 53.701139-43.675034 97.344485-97.34702 97.344485z" p-id="2586"></path></svg>