<?xml version="1.0" encoding="utf-8"?>
<!-- Generator: Adobe Illustrator 27.0.0, SVG Export Plug-In . SVG Version: 6.00 Build 0)  -->
<svg version="1.1" id="图层_1" xmlns="http://www.w3.org/2000/svg" xmlns:xlink="http://www.w3.org/1999/xlink" x="0px" y="0px"
	 viewBox="0 0 256 256" style="enable-background:new 0 0 256 256;" xml:space="preserve">
<style type="text/css">
	.st0{fill-rule:evenodd;clip-rule:evenodd;fill:url(#SVGID_1_);}
	.st1{fill:none;}
	.st2{filter:url(#Adobe_OpacityMaskFilter);}
	.st3{fill-rule:evenodd;clip-rule:evenodd;fill:#FFFFFF;}
	.st4{mask:url(#mask-5_00000165231447861121401220000013083796375556716453_);fill-rule:evenodd;clip-rule:evenodd;fill:#FAF9F8;}
	.st5{filter:url(#Adobe_OpacityMaskFilter_00000177462766066330769530000010554475562966637453_);}
	.st6{mask:url(#mask-5_00000172440872533590639150000017767697765283370936_);fill-rule:evenodd;clip-rule:evenodd;fill:#FAF9F8;}
	.st7{filter:url(#Adobe_OpacityMaskFilter_00000122709014009072097840000003222942851018993306_);}
	.st8{mask:url(#mask-5_00000143577924522589071470000018166957347958319496_);fill-rule:evenodd;clip-rule:evenodd;fill:#FAF9F8;}
	.st9{filter:url(#Adobe_OpacityMaskFilter_00000176032807282913107520000015340224038523360650_);}
	.st10{mask:url(#mask-5_00000119119261478537032080000008633657274293206193_);fill-rule:evenodd;clip-rule:evenodd;fill:#FAF9F8;}
	.st11{filter:url(#Adobe_OpacityMaskFilter_00000003081306580825876810000013849118202816406405_);}
	.st12{mask:url(#mask-5_00000024002210869424199990000014283209596639218832_);fill-rule:evenodd;clip-rule:evenodd;fill:#FAF9F8;}
</style>
<g>
	<linearGradient id="SVGID_1_" gradientUnits="userSpaceOnUse" x1="127.6865" y1="0" x2="127.6865" y2="256">
		<stop  offset="0" style="stop-color:#2E4F82"/>
		<stop  offset="1" style="stop-color:#182E4D"/>
	</linearGradient>
	<path class="st0" d="M239.6,256H15.7c-8.9,0-16-7.2-16-16V16c0-8.9,7.2-16,16-16h223.9c8.9,0,16,7.2,16,16V240
		C255.7,248.8,248.5,256,239.6,256z"/>
	<g transform="translate(16.000000, 0.000000)">
		<g>
			<path id="path-4_00000035508211945384357970000007499493211502597049_" class="st1" d="M-3.4,79.1h228.8v97.9H-3.4"/>
		</g>
		<defs>
			<filter id="Adobe_OpacityMaskFilter" filterUnits="userSpaceOnUse" x="195" y="79.1" width="30.4" height="97.9">
				<feColorMatrix  type="matrix" values="1 0 0 0 0  0 1 0 0 0  0 0 1 0 0  0 0 0 1 0"/>
			</filter>
		</defs>
		
			<mask maskUnits="userSpaceOnUse" x="195" y="79.1" width="30.4" height="97.9" id="mask-5_00000165231447861121401220000013083796375556716453_">
			<g class="st2">
				<path id="path-4_00000155141331127331764200000003368752248459117228_" class="st3" d="M-3.4,79.1h228.8v97.9H-3.4"/>
			</g>
		</mask>
		<path class="st4" d="M215.6,114.8c0-7.3,1.1-11.6,1.1-19.5c0-12.2-4.5-16.2-14.5-16.2H195v8.6h2.3c5.1,0,6.2,1.7,6.2,7.9
			c0,5.8-0.6,11.6-0.6,18.4c0,8.6,2.8,12,8.5,13.3v0.6c-5.6,1.3-8.5,4.7-8.5,13.3c0,6.8,0.6,12.2,0.6,18.4c0,6.4-1.3,8.1-6.2,8.1
			v0.2H195v9h7.3c10,0,14.5-3.9,14.5-16.2c0-8.1-1.1-12.2-1.1-19.5c0-3.9,2.4-8.1,9.8-8.5V123C218.1,122.8,215.6,118.7,215.6,114.8"
			/>
		<defs>
			
				<filter id="Adobe_OpacityMaskFilter_00000039853730537080279090000016596188025723593642_" filterUnits="userSpaceOnUse" x="103.3" y="101.8" width="44.5" height="59.7">
				<feColorMatrix  type="matrix" values="1 0 0 0 0  0 1 0 0 0  0 0 1 0 0  0 0 0 1 0"/>
			</filter>
		</defs>
		
			<mask maskUnits="userSpaceOnUse" x="103.3" y="101.8" width="44.5" height="59.7" id="mask-5_00000172440872533590639150000017767697765283370936_">
			<g style="filter:url(#Adobe_OpacityMaskFilter_00000039853730537080279090000016596188025723593642_);">
				<path id="path-4_00000145766126956813414830000000072278608002168743_" class="st3" d="M-3.4,79.1h228.8v97.9H-3.4"/>
			</g>
		</mask>
		<path class="st6" d="M132.4,126.2c-5.8-2.3-11.1-3.6-11.1-7.3c0-2.8,2.3-4.5,6.4-4.5c4.1,0,7.9,1.7,12,4.7l7.5-10
			c-4.7-3.6-11.1-7.3-19.7-7.3c-12.8,0-21.4,7.3-21.4,17.7c0,9.2,8.1,13.9,14.8,16.5c5.8,2.3,11.5,4.1,11.5,7.9
			c0,2.8-2.3,4.7-7.3,4.7c-4.7,0-9.4-1.9-14.5-5.8l-7.3,10.9c5.6,4.7,14.3,7.9,21.4,7.9c15,0,23.1-7.9,23.1-18.2
			S139.7,128.7,132.4,126.2"/>
		<defs>
			
				<filter id="Adobe_OpacityMaskFilter_00000087406317685352075410000007644347630009451410_" filterUnits="userSpaceOnUse" x="148.8" y="101.8" width="44.5" height="59.7">
				<feColorMatrix  type="matrix" values="1 0 0 0 0  0 1 0 0 0  0 0 1 0 0  0 0 0 1 0"/>
			</filter>
		</defs>
		
			<mask maskUnits="userSpaceOnUse" x="148.8" y="101.8" width="44.5" height="59.7" id="mask-5_00000143577924522589071470000018166957347958319496_">
			<g style="filter:url(#Adobe_OpacityMaskFilter_00000087406317685352075410000007644347630009451410_);">
				<path id="path-4_00000036945653812306599270000007495837739432161186_" class="st3" d="M-3.4,79.1h228.8v97.9H-3.4"/>
			</g>
		</mask>
		<path class="st8" d="M177.9,126.2c-5.6-2.3-10.9-3.6-10.9-7.3c0-2.8,2.3-4.5,6.4-4.5c4.1,0,7.9,1.7,12,4.7l7.5-10
			c-4.7-3.6-11.1-7.3-19.7-7.3c-12.8,0-21.4,7.3-21.4,17.7c0,9.2,8.1,13.9,14.8,16.5c5.8,2.3,11.5,4.1,11.5,7.9
			c0,2.8-2.3,4.7-7.3,4.7c-4.7,0-9.4-1.9-14.5-5.8l-7.5,10.9c5.6,4.7,14.3,7.9,21.4,7.9c15,0,23.1-7.9,23.1-18.2
			S185.2,128.7,177.9,126.2"/>
		<defs>
			
				<filter id="Adobe_OpacityMaskFilter_00000086690602003391516780000014097310910369832110_" filterUnits="userSpaceOnUse" x="50.5" y="101.6" width="50.4" height="59">
				<feColorMatrix  type="matrix" values="1 0 0 0 0  0 1 0 0 0  0 0 1 0 0  0 0 0 1 0"/>
			</filter>
		</defs>
		
			<mask maskUnits="userSpaceOnUse" x="50.5" y="101.6" width="50.4" height="59" id="mask-5_00000119119261478537032080000008633657274293206193_">
			<g style="filter:url(#Adobe_OpacityMaskFilter_00000086690602003391516780000014097310910369832110_);">
				<path id="path-4_00000165928875073772878370000004433014761123489921_" class="st3" d="M-3.4,79.1h228.8v97.9H-3.4"/>
			</g>
		</mask>
		<path class="st10" d="M66.3,125.3c1.1-7.5,5.6-11.1,10.9-11.1c6.8,0,9.4,4.7,9.4,11.1H66.3L66.3,125.3z M100.9,128.7
			c0.2-15.2-8.1-27.1-23.9-27.1c-13.7,0-26.9,11.5-26.5,29.5c0,18.6,12.2,29.5,28.4,29.5c6.8,0,14.3-2.4,20.1-6.4l-5.6-10
			c-4.1,2.4-8.1,3.6-12.2,3.6c-7.5,0-13.3-3.6-14.8-12.2h34C100.5,134.3,100.9,131.7,100.9,128.7L100.9,128.7z"/>
		<defs>
			
				<filter id="Adobe_OpacityMaskFilter_00000054952437106694882930000016328783996793704364_" filterUnits="userSpaceOnUse" x="-3.4" y="79.1" width="57.1" height="97.5">
				<feColorMatrix  type="matrix" values="1 0 0 0 0  0 1 0 0 0  0 0 1 0 0  0 0 0 1 0"/>
			</filter>
		</defs>
		
			<mask maskUnits="userSpaceOnUse" x="-3.4" y="79.1" width="57.1" height="97.5" id="mask-5_00000024002210869424199990000014283209596639218832_">
			<g style="filter:url(#Adobe_OpacityMaskFilter_00000054952437106694882930000016328783996793704364_);">
				<path id="path-4_00000147919663967929409690000003921610875438733445_" class="st3" d="M-3.4,79.1h228.8v97.9H-3.4"/>
			</g>
		</mask>
		<path class="st12" d="M49.6,147.4c-1.3,0-3-1.1-3-4.7V79.1H19.9C9.7,79.1,5.2,83,5.2,95.2c0,8.1,1.1,12.6,1.1,19.5
			c0,3.9-2.4,8.1-9.8,8.5v9.8c7.3,0.2,9.8,4.3,9.8,8.3c0,7-1.1,11.1-1.1,19.2c0,12.2,4.5,16.2,14.5,16.2H27v-8.6h-2.3
			c-4.7,0-6.2-1.9-6.2-8.1s0.6-11.5,0.6-18.4c0-8.6-2.8-12-8.5-13.3v-0.6c5.6-1.3,8.5-4.7,8.5-13.3c0-6.8-0.6-12.2-0.6-18.4
			c0-6.2,1.3-7.9,6.2-7.9h5.1v53.9c0,11.5,3.9,19,15.4,19c3.6,0,6.4-0.6,8.5-1.3l-1.9-12.2C50.7,147.4,50.1,147.4,49.6,147.4"/>
	</g>
</g>
</svg>
