<?xml version="1.0" encoding="utf-8"?>
<!-- Generator: Adobe Illustrator 27.0.0, SVG Export Plug-In . SVG Version: 6.00 Build 0)  -->
<svg version="1.1" id="图层_1" xmlns="http://www.w3.org/2000/svg" xmlns:xlink="http://www.w3.org/1999/xlink" x="0px" y="0px"
	 viewBox="0 0 200 200" style="enable-background:new 0 0 200 200;" xml:space="preserve">
<style type="text/css">
	.st0{fill:#FFFFFF;}
	.st1{fill-rule:evenodd;clip-rule:evenodd;}
	.st2{fill-rule:evenodd;clip-rule:evenodd;fill:#3492FF;}
</style>
<path class="st0" d="M180,200H20c-11,0-20-9-20-20V20C0,9,9,0,20,0h160c11,0,20,9,20,20v160C200,191,191,200,180,200z"/>
<g>
	<path class="st1" d="M18.1,25.4h15.3v101.4h60.4v12.5H18.1L18.1,25.4L18.1,25.4z"/>
	<path class="st1" d="M135.4,55.2c10.4-1.4,21.5,0.7,29.9,7.6c9,6.2,13.9,17.4,14.6,27.8c1.4,12.5,0,25-6.9,35.4
		c-6.2,8.3-16,13.9-27.1,14.6c-10.4,1.4-22.2-0.7-31.2-7.6c-8.3-6.9-12.5-17.4-13.9-27.8c-1.4-11.1,0-23.6,6.9-33.3
		C113.2,62.2,124.3,55.9,135.4,55.2L135.4,55.2z M137.5,67c6.9-0.7,14.6,1.4,20.1,6.2c4.9,5.6,7.6,12.5,8.3,19.4
		c0.7,7.6,0,16-3.5,22.9c-3.5,6.9-9.7,11.8-17.4,13.2c-6.9,1.4-14.6-0.7-19.4-4.9c-5.6-4.2-9-10.4-10.4-16.7
		c-1.4-9-0.7-18.1,2.8-26.4C121.5,73.3,129.2,67.7,137.5,67L137.5,67z"/>
	<path class="st2" d="M18.1,157.3h163.8v17.4H18.1V157.3L18.1,157.3z"/>
</g>
</svg>
