<?xml version="1.0" standalone="no"?><!DOCTYPE svg PUBLIC "-//W3C//DTD SVG 1.1//EN" "http://www.w3.org/Graphics/SVG/1.1/DTD/svg11.dtd"><svg t="1687770753230" class="icon" viewBox="0 0 3059 1024" version="1.1" xmlns="http://www.w3.org/2000/svg" p-id="2686" xmlns:xlink="http://www.w3.org/1999/xlink" width="597.4609375" height="200"><path d="M2059.756602 831.191734c19.986223 0 37.621125 8.229621 51.729047 21.161883 8.229621 8.229621 19.986223 8.229621 28.215844 0s8.229621-19.986223 0-28.215844c-21.161883-21.161883-49.377727-32.918485-79.944891-32.918485-62.309989 0-112.863375 50.553387-112.863376 112.863376s50.553387 112.863375 112.863376 112.863375c30.567164 0 58.783008-11.756602 79.944891-32.918484 8.229621-8.229621 8.229621-19.986223 0-28.215844s-19.986223-8.229621-28.215844 0c-14.107922 14.107922-31.742824 21.161883-51.729047 21.161883-39.972445 0-72.89093-32.918485-72.89093-72.89093-1.17566-39.972445 31.742824-72.89093 72.89093-72.89093zM2530.020666 808.854191c-3.52698-7.053961-10.580941-10.580941-17.634903-10.580942s-14.107922 3.52698-17.634902 10.580942l-94.052813 179.876004c-4.702641 9.405281-1.17566 21.161883 8.229621 27.040184 9.405281 4.702641 21.161883 1.17566 27.040184-8.229621l76.41791-146.95752 76.417911 146.95752c3.52698 7.053961 10.580941 10.580941 17.634902 10.580941 3.52698 0 5.878301-1.17566 9.405282-2.35132 9.405281-4.702641 12.932262-17.634902 8.229621-27.040184l-94.052813-179.876004zM185.754305 831.191734c19.986223 0 37.621125 8.229621 51.729047 21.161883 8.229621 8.229621 19.986223 8.229621 28.215844 0s8.229621-19.986223 0-28.215844c-21.161883-21.161883-49.377727-32.918485-79.944891-32.918485-62.309989 0-112.863375 50.553387-112.863375 112.863376s50.553387 112.863375 112.863375 112.863375c30.567164 0 58.783008-11.756602 79.944891-32.918484 8.229621-8.229621 8.229621-19.986223 0-28.215844s-19.986223-8.229621-28.215844 0c-14.107922 14.107922-31.742824 21.161883-51.729047 21.161883-39.972445 0-72.89093-32.918485-72.89093-72.89093 0-39.972445 32.918485-72.89093 72.89093-72.89093zM646.613088 808.854191c-3.52698-7.053961-10.580941-10.580941-17.634902-10.580942s-14.107922 3.52698-17.634902 10.580942l-94.052813 179.876004c-4.702641 9.405281-1.17566 21.161883 8.229621 27.040184 2.35132 1.17566 5.878301 2.35132 9.405281 2.35132 7.053961 0 14.107922-3.52698 17.634903-10.580941l76.41791-146.95752L705.396096 1007.540758c4.702641 9.405281 17.634902 12.932262 27.040184 8.229621 9.405281-4.702641 12.932262-17.634902 8.229621-27.040184l-94.052813-179.876004zM1605.95178 794.746269h-97.579794c-10.580941 0-19.986223 9.405281-19.986223 19.986222v185.754306c0 10.580941 9.405281 19.986223 19.986223 19.986223h97.579794c38.796785 0 69.363949-31.742824 69.363949-69.36395v-86.998852c1.17566-37.621125-30.567164-69.363949-69.363949-69.363949z m30.567164 156.362801c0 16.459242-12.932262 29.391504-29.391504 29.391504H1528.358209V834.718714h77.593571c16.459242 0 29.391504 12.932262 29.391504 29.391504v86.998852zM3036.730195 794.746269h-157.538461c-10.580941 0-19.986223 9.405281-19.986223 19.986222s9.405281 19.986223 19.986223 19.986223h58.783008v165.768083c0 10.580941 9.405281 19.986223 19.986222 19.986223 10.580941 0 19.986223-9.405281 19.986223-19.986223V834.718714h58.783008c10.580941 0 19.986223-9.405281 19.986223-19.986223s-8.229621-19.986223-19.986223-19.986222zM1145.092997 932.298507c19.986223-14.107922 32.918485-36.445465 32.918484-62.309988 0-41.148106-34.094145-75.24225-75.24225-75.24225h-84.647532c-10.580941 0-19.986223 9.405281-19.986223 19.986222V998.135476c0 10.580941 9.405281 19.986223 19.986223 19.986223s19.986223-9.405281 19.986223-19.986223V834.718714h64.661309c19.986223 0 35.269805 16.459242 35.269805 35.269805 0 15.283582-10.580941 29.391504-24.688864 34.094145-9.405281 3.52698-15.283582 12.932262-14.107922 22.337543 0 2.35132 1.17566 5.878301 2.351321 8.229621l41.148105 78.769231c3.52698 7.053961 10.580941 10.580941 17.634903 10.580941 3.52698 0 5.878301-1.17566 9.405281-2.35132 9.405281-4.702641 12.932262-17.634902 8.229621-27.040184l-32.918484-62.309989zM604.289323 335.063146c16.459242 0 29.391504-12.932262 29.391504-29.391504s-12.932262-29.391504-29.391504-29.391504H308.022962v-116.390356h217.49713c16.459242 0 29.391504-12.932262 29.391504-29.391504s-12.932262-29.391504-29.391504-29.391504H308.022962V29.391504c0-16.459242-12.932262-29.391504-29.391504-29.391504s-29.391504 12.932262-29.391504 29.391504v245.712974H29.391504c-16.459242 0-29.391504 12.932262-29.391504 29.391504s12.932262 29.391504 29.391504 29.391504h219.84845v282.158438c0 16.459242 12.932262 29.391504 29.391504 29.391504s29.391504-12.932262 29.391504-29.391504v-282.158438h296.266361z" fill="#ffffff" p-id="2687"></path><path d="M544.330654 585.47876c12.932262-10.580941 14.107922-29.391504 3.526981-42.323766l-109.336395-132.849598c-10.580941-12.932262-29.391504-14.107922-42.323766-3.52698-12.932262 10.580941-14.107922 29.391504-3.52698 42.323765l109.336395 132.849599c5.878301 7.053961 14.107922 10.580941 23.513203 10.580941 7.053961 0 14.107922-2.35132 18.810562-7.053961zM935.825488 52.904707l-39.972446 35.269805-43.499425-70.53961C844.123995 3.52698 825.313433-1.17566 811.205511 8.229621c-14.107922 8.229621-18.810563 27.040184-9.405281 41.148106l48.202066 78.769231-68.188289 59.958668c-12.932262 10.580941-14.107922 29.391504-3.526981 42.323766 5.878301 7.053961 14.107922 10.580941 22.337543 10.580941 7.053961 0 14.107922-2.35132 19.986223-7.053961l37.621125-32.918485v209.267509l-77.59357 67.012629c-12.932262 10.580941-14.107922 29.391504-3.526981 42.323766 5.878301 7.053961 14.107922 10.580941 22.337543 10.580941 7.053961 0 14.107922-2.35132 19.986223-7.05396l37.621125-32.918485v129.322618c0 16.459242 12.932262 29.391504 29.391504 29.391504s29.391504-12.932262 29.391504-29.391504v-470.264065l56.431688-49.377726c12.932262-10.580941 14.107922-29.391504 3.52698-42.323766-8.229621-14.107922-27.040184-15.283582-39.972445-4.702641zM1055.742824 122.268657h382.089553c16.459242 0 29.391504-12.932262 29.391504-29.391504s-12.932262-29.391504-29.391504-29.391504H1399.035591V32.918485c0-16.459242-12.932262-29.391504-29.391504-29.391505S1340.252583 16.459242 1340.252583 32.918485v29.391504H1156.849598V32.918485c0-16.459242-12.932262-29.391504-29.391504-29.391505s-29.391504 12.932262-29.391504 29.391505v29.391504h-42.323766c-16.459242 0-29.391504 12.932262-29.391504 29.391504-1.17566 16.459242 12.932262 30.567164 29.391504 30.567164zM1449.588978 183.402985H1046.337543c-16.459242 0-29.391504 12.932262-29.391504 29.391504v404.427095c0 16.459242 12.932262 29.391504 29.391504 29.391504h404.427095c16.459242 0 29.391504-12.932262 29.391504-29.391504V212.794489c0-16.459242-14.107922-29.391504-30.567164-29.391504z m-29.391504 202.213548h-142.254879V242.185993h142.254879v143.43054z m-202.213547-143.43054v142.25488H1075.729047V242.185993h142.25488zM1075.729047 444.399541h142.25488V587.83008H1075.729047V444.399541zM1277.942595 587.83008V444.399541h142.254879V587.83008h-142.254879zM1652.978186 128.146958c16.459242 0 29.391504-12.932262 29.391504-29.391504V55.256028c0-16.459242-12.932262-29.391504-29.391504-29.391504s-29.391504 12.932262-29.391504 29.391504v44.675086c0 15.283582 12.932262 28.215844 29.391504 28.215844zM1872.826636 24.688863c-16.459242 0-29.391504 12.932262-29.391504 29.391504v44.675087c0 16.459242 12.932262 29.391504 29.391504 29.391504s29.391504-12.932262 29.391504-29.391504V55.256028c1.17566-16.459242-12.932262-30.567164-29.391504-30.567165zM1652.978186 306.847302c-16.459242 0-29.391504 12.932262-29.391504 29.391504v279.807118c0 16.459242 12.932262 29.391504 29.391504 29.391504s29.391504-12.932262 29.391504-29.391504V337.414466c1.17566-16.459242-12.932262-30.567164-29.391504-30.567164zM1872.826636 306.847302c-16.459242 0-29.391504 12.932262-29.391504 29.391504v279.807118c0 16.459242 12.932262 29.391504 29.391504 29.391504s29.391504-12.932262 29.391504-29.391504V337.414466c1.17566-16.459242-12.932262-30.567164-29.391504-30.567164zM2272.551091 86.998852c16.459242 0 29.391504-12.932262 29.391504-29.391504s-12.932262-29.391504-29.391504-29.391504h-110.512055c-2.35132-14.107922-14.107922-24.688863-29.391504-24.688864s-27.040184 10.580941-29.391504 24.688864h-110.512056c-16.459242 0-29.391504 12.932262-29.391504 29.391504s12.932262 29.391504 29.391504 29.391504h110.512056v34.094145h-110.512056c-16.459242 0-29.391504 12.932262-29.391504 29.391504s12.932262 29.391504 29.391504 29.391504h110.512056v32.918484h-110.512056c-16.459242 0-29.391504 12.932262-29.391504 29.391504s12.932262 29.391504 29.391504 29.391504h279.807119c16.459242 0 29.391504-12.932262 29.391504-29.391504s-12.932262-29.391504-29.391504-29.391504h-110.512055v-32.918484h110.512055c16.459242 0 29.391504-12.932262 29.391504-29.391504s-12.932262-29.391504-29.391504-29.391504h-110.512055V86.998852h110.512055z" fill="#ffffff" p-id="2688"></path><path d="M1872.826636 183.402985h-81.120551V32.918485c0-16.459242-12.932262-29.391504-29.391504-29.391505s-29.391504 12.932262-29.391504 29.391505v150.4845h-81.120551c-16.459242 0-29.391504 12.932262-29.391504 29.391504s12.932262 29.391504 29.391504 29.391504h81.120551v375.035591c0 16.459242 12.932262 29.391504 29.391504 29.391504s29.391504-12.932262 29.391504-29.391504V242.185993h81.120551c16.459242 0 29.391504-12.932262 29.391504-29.391504 1.17566-16.459242-12.932262-29.391504-29.391504-29.391504zM2132.647532 306.847302c-94.052813 0-170.470723 76.41791-170.470724 170.470723v139.903559c0 16.459242 12.932262 29.391504 29.391504 29.391504s29.391504-12.932262 29.391504-29.391504V477.318025c0-61.134328 49.377727-110.512055 110.512055-110.512055s110.512055 49.377727 110.512056 110.512055v139.903559c0 16.459242 12.932262 29.391504 29.391504 29.391504s29.391504-12.932262 29.391504-29.391504V477.318025c2.35132-94.052813-74.06659-170.470723-168.119403-170.470723z" fill="#ffffff" p-id="2689"></path><path d="M2132.647532 452.629162c-16.459242 0-29.391504 12.932262-29.391504 29.391504v134.025258c0 16.459242 12.932262 29.391504 29.391504 29.391504s29.391504-12.932262 29.391504-29.391504V483.196326c0-16.459242-12.932262-30.567164-29.391504-30.567164zM3059.067738 616.045924c0-16.459242-12.932262-29.391504-29.391504-29.391504h-365.63031c-62.309989 0-98.755454-38.796785-118.741676-71.71527l-5.878301-9.405281V244.537313c0-16.459242-12.932262-29.391504-29.391504-29.391504h-61.134328c-16.459242 0-29.391504 12.932262-29.391504 29.391504s12.932262 29.391504 29.391504 29.391504h30.567164V493.777268c0 38.796785-18.810563 75.24225-51.729047 97.579793-14.107922 9.405281-17.634902 28.215844-8.229621 41.148105 5.878301 8.229621 15.283582 12.932262 24.688863 12.932262 5.878301 0 11.756602-1.17566 16.459242-4.70264 23.513203-16.459242 42.323766-37.621125 56.431688-61.134329 37.621125 43.499426 88.174512 67.012629 145.78186 67.012629h365.63031c17.634902-1.17566 30.567164-14.107922 30.567164-30.567164z" fill="#ffffff" p-id="2690"></path><path d="M2619.370838 286.861079h387.967853c16.459242 0 29.391504-12.932262 29.391504-29.391504s-12.932262-29.391504-29.391504-29.391504h-161.065442v-71.71527h131.673938c16.459242 0 29.391504-12.932262 29.391504-29.391504s-12.932262-29.391504-29.391504-29.391504h-131.673938V39.972445c0-16.459242-12.932262-29.391504-29.391504-29.391504s-29.391504 12.932262-29.391504 29.391504v55.256028h-101.106774l16.459243-36.445465c7.053961-15.283582 0-32.918485-15.283583-38.796785-15.283582-7.053961-32.918485 0-38.796785 15.283582l-35.269805 78.769231c-4.702641 9.405281-3.52698 19.986223 2.351321 28.215843s15.283582 14.107922 24.688863 14.107922h146.95752v71.71527h-168.119403c-16.459242 0-29.391504 12.932262-29.391504 29.391504s14.107922 29.391504 29.391504 29.391504zM2709.89667 359.752009v32.918485c0 49.377727-37.621125 88.174512-82.296211 88.174512-16.459242 0-29.391504 12.932262-29.391504 29.391504s12.932262 29.391504 29.391504 29.391504c78.769231 0 142.254879-65.836969 142.25488-148.13318v-32.918485c0-16.459242-12.932262-29.391504-29.391504-29.391504-16.459242 1.17566-30.567164 14.107922-30.567165 30.567164zM2890.948335 330.360505c-16.459242 0-29.391504 12.932262-29.391504 29.391504v32.918485c0 81.120551 65.836969 148.13318 148.13318 148.13318 16.459242 0 29.391504-12.932262 29.391504-29.391504S3026.149254 482.020666 3009.690011 482.020666c-49.377727 0-88.174512-39.972445-88.174512-88.174512v-32.918485c-1.17566-17.634902-14.107922-30.567164-30.567164-30.567164zM2482.994259 141.079219c5.878301 9.405281 15.283582 14.107922 25.864524 14.107922 4.702641 0 10.580941-1.17566 15.283582-4.70264 14.107922-8.229621 18.810563-27.040184 10.580942-41.148106l-42.323766-70.53961c-8.229621-14.107922-27.040184-18.810563-41.148106-10.580941-14.107922 8.229621-18.810563 27.040184-10.580941 41.148105l42.323765 71.71527z" fill="#ffffff" p-id="2691"></path></svg>