<svg xmlns="http://www.w3.org/2000/svg" id="beans" shape-rendering="geometricPrecision" text-rendering="geometricPrecision" viewBox="0 0 100 100"><style>@keyframes t1{0%{transform:translate(2px,50px) scale(0,0) translate(-83.5px,-91.625px)}36.0144%{transform:translate(2px,50px) scale(0,0) translate(-83.5px,-91.625px);animation-timing-function:cubic-bezier(.5,0,.5,1)}92.0768%,to{transform:translate(25px,50px) scale(.7,.7) translate(-83.5px,-91.625px)}}@keyframes t2{0%{transform:translate(25px,50px) scale(.7,.7) translate(-83.5px,-91.625px)}24.0096%{transform:translate(25px,50px) scale(.7,.7) translate(-83.5px,-91.625px);animation-timing-function:cubic-bezier(.5,0,.5,1)}80.072%,to{transform:translate(50px,50px) scale(.95,.95) translate(-83.5px,-91.625px)}}@keyframes t3{0%{transform:translate(50px,50px) scale(.95,.95) translate(-83.5px,-91.625px)}12.0048%{transform:translate(50px,50px) scale(.95,.95) translate(-83.5px,-91.625px);animation-timing-function:cubic-bezier(.5,0,.5,1)}68.0672%,to{transform:translate(75px,50px) scale(.7,.7) translate(-83.5px,-91.625px)}}@keyframes t4{0%{transform:translate(75px,50px) scale(.7,.7) translate(-83.5px,-91.625px);animation-timing-function:cubic-bezier(.6,0,.2,1)}to{transform:translate(95px,50px) scale(0,0) translate(-83.5px,-91.625px)}}</style><g id="1" transform="matrix(0 0 0 0 2 50)" style="animation:.833s infinite both t1"><path id="1" fill="#fff" d="M78.378 87.01l2.461-2.495a5.054 5.054 0 016.999-.209l.273.265c3.76 3.812 3.85 9.936.268 13.858l-.268.283a5.132 5.132 0 01-7.327 0l-2.406-2.44c-1.414-1.433-1.884-2.26-2.166-3.204a4.903 4.903 0 010-2.854c.282-.944.752-1.77 2.166-3.204z" fill-opacity="1" fill-rule="nonzero" opacity="1"/></g><g id="2" transform="matrix(.7 0 0 .7 -33.45 -14.138)" style="animation:.833s infinite both t2"><path id="1-2" fill="#fff" d="M78.378 87.01l2.461-2.495a5.054 5.054 0 016.999-.209l.273.265c3.76 3.812 3.85 9.936.268 13.858l-.268.283a5.132 5.132 0 01-7.327 0l-2.406-2.44c-1.414-1.433-1.884-2.26-2.166-3.204a4.903 4.903 0 010-2.854c.282-.944.752-1.77 2.166-3.204z" fill-opacity="1" fill-rule="nonzero" opacity="1"/></g><g id="3" transform="matrix(.95 0 0 .95 -29.325 -37.044)" style="animation:.833s infinite both t3"><path id="1-3" fill="#fff" d="M78.378 87.01l2.461-2.495a5.054 5.054 0 016.999-.209l.273.265c3.76 3.812 3.85 9.936.268 13.858l-.268.283a5.132 5.132 0 01-7.327 0l-2.406-2.44c-1.414-1.433-1.884-2.26-2.166-3.204a4.903 4.903 0 010-2.854c.282-.944.752-1.77 2.166-3.204z" fill-opacity="1" fill-rule="nonzero" opacity="1"/></g><g id="4" transform="matrix(.7 0 0 .7 -58.45 -64.138)" style="animation:.833s infinite both t4"><path id="1-4" fill="#fff" d="M78.378 87.01l2.461-2.495a5.054 5.054 0 016.999-.209l.273.265c3.76 3.812 3.85 9.936.268 13.858l-.268.283a5.132 5.132 0 01-7.327 0l-2.406-2.44c-1.414-1.433-1.884-2.26-2.166-3.204a4.903 4.903 0 010-2.854c.282-.944.752-1.77 2.166-3.204z" fill-opacity="1" fill-rule="nonzero" opacity="1"/></g></svg>